<?xml version="1.0" standalone="no"?>
<!DOCTYPE svg PUBLIC "-//W3C//DTD SVG 1.1//EN" "http://www.w3.org/Graphics/SVG/1.1/DTD/svg11.dtd" >
<svg xmlns="http://www.w3.org/2000/svg">
<metadata>
This is a custom SVG webfont generated by Font Squirrel.
Copyright   : Copyright c 2011 Natanael Gama exondiscoveredcom with Reserved Font Name Exo
Designer    : Natanael Gama
</metadata>
<defs>
<font id="ExoExtraLight" horiz-adv-x="702" >
<font-face units-per-em="2048" ascent="1638" descent="-410" />
<missing-glyph horiz-adv-x="550" />
<glyph unicode=" "  horiz-adv-x="550" />
<glyph unicode="&#x09;" horiz-adv-x="550" />
<glyph unicode="&#xa0;" horiz-adv-x="550" />
<glyph unicode="!" horiz-adv-x="538" d="M207 33v123q0 33 33 32h53q33 0 33 -32v-123q0 -33 -33 -33h-53q-33 0 -33 33zM219 1497h92l-12 -1096h-68z" />
<glyph unicode="&#x22;" horiz-adv-x="618" d="M152 1362v137h86v-137l-15 -275h-53zM381 1362v137h86v-137l-14 -275h-54z" />
<glyph unicode="#" horiz-adv-x="1361" d="M51 500l8 51h353l61 393h-352l10 51h350l80 504h53l-82 -504h369l78 504h53l-80 -504h363l-8 -51h-365l-61 -395h362l-8 -51h-363l-77 -498h-54l80 498l-368 2l-78 -500h-51l77 500h-350zM463 551l366 -2l62 395h-367z" />
<glyph unicode="$" horiz-adv-x="1189" d="M139 1012v135q2 213 107.5 291t306.5 73v177h63v-181q139 -10 375 -39v-57l-454 16q-156 6 -235 -54t-79 -226v-135q0 -133 69.5 -183.5t201.5 -50.5h231q190 0 259 -86t69 -233v-140q0 -106 -36 -177.5t-101.5 -104.5t-136 -44t-163.5 -9v-166h-63v170q-301 20 -375 32 v60q176 -12 471 -12q68 0 119 9t99 34.5t75 78t27 129.5v140q0 119 -56.5 176t-187.5 57h-229q-111 0 -185.5 28t-109.5 77t-48.5 99t-13.5 116z" />
<glyph unicode="%" horiz-adv-x="1953" d="M106 971v272q0 135 57.5 195.5t207.5 60.5h207q145 0 202.5 -60.5t57.5 -195.5v-272q0 -135 -57.5 -195.5t-207.5 -60.5h-206q-145 0 -203 60.5t-58 195.5zM172 971q0 -109 44 -150t151 -41h206q113 0 156 40t43 151v272q0 106 -42 148.5t-152 42.5h-207q-113 0 -156 -39 t-43 -152v-272zM485 0l897 1499h78l-897 -1499h-78zM1118 262v273q0 135 57.5 195.5t206.5 60.5h207q145 0 202.5 -60.5t57.5 -195.5v-273q0 -135 -57 -195.5t-207 -60.5h-207q-145 0 -202.5 60.5t-57.5 195.5zM1184 262q0 -109 44 -149.5t150 -40.5h207q113 0 156 40 t43 150v273q0 106 -42 148t-153 42h-207q-113 0 -155.5 -39t-42.5 -151v-273z" />
<glyph unicode="&#x26;" horiz-adv-x="1325" d="M89 477.5q24 153.5 163 272.5l176 149l-129 174q-80 111 -68.5 199t70.5 145.5t139 71.5q195 33 547 -16v-54h-416q-98 0 -166.5 -34.5t-86 -105.5t62.5 -177l553 -752l289 285l26 -27l-127 -192l-135 -131l209 -285h-102l-168 227l-148 -137q-121 -119 -302 -98.5 t-298 176.5q-113 156 -89 309.5zM169 459.5q-15 -125.5 79 -242.5q88 -115 223 -139.5t244 69.5l157 148l-397 532l-160 -133q-131 -109 -146 -234.5z" />
<glyph unicode="'" horiz-adv-x="280" d="M98 1362v137h86v-137l-14 -275h-55z" />
<glyph unicode="(" horiz-adv-x="657" d="M188 668q0 158 34 327.5t82 300.5t95 240t81 167l34 58h94q-14 -23 -36.5 -61.5t-80 -161.5t-102.5 -246t-81 -296t-36 -328q0 -172 35 -348.5t84 -305.5t98.5 -233.5t83.5 -157.5l35 -53h-94q-12 18 -34.5 52t-79 146.5t-99.5 233.5t-78 303.5t-35 362.5z" />
<glyph unicode=")" horiz-adv-x="657" d="M51 -430q14 20 37 56t80 153t101 237.5t80 300t36 351.5q0 156 -35 325.5t-84 300.5t-97 241t-83 168l-35 58h92q12 -23 35 -61.5t79 -160.5t99 -245t78 -296t35 -330q0 -180 -34 -360.5t-81 -307.5t-95 -228.5t-82 -151.5l-34 -50h-92z" />
<glyph unicode="*" horiz-adv-x="940" d="M127 1194v47l289 25l4 -82zM283 842l61 274l84 -16l-102 -273zM401 1477l45 16l142 -248l-80 -37zM467 1001l45 74l238 -176l-27 -37zM557 1143l236 166l24 -41l-203 -189z" />
<glyph unicode="+" horiz-adv-x="1062" d="M127 688v82h360v365h84v-365h367v-82h-367v-364h-84v364h-360z" />
<glyph unicode="," horiz-adv-x="417" d="M152 35v121q0 37 34 37h50q33 0 32 -37v-213q0 -98 -87 -99l-23 2v31q45 0 45 41v82h-17q-34 0 -34 35z" />
<glyph unicode="-" d="M51 553v82h602v-82h-602z" />
<glyph unicode="." horiz-adv-x="421" d="M152 33v123q0 33 34 32h52q33 0 32 -32v-123q0 -33 -32 -33h-52q-14 0 -24 9.5t-10 23.5z" />
<glyph unicode="/" horiz-adv-x="755" d="M51 -147l576 1724h80l-576 -1724h-80z" />
<glyph unicode="0" horiz-adv-x="1341" d="M176 332v835q0 160 99.5 246t252.5 86h295q176 0 260 -92t84 -240v-835q0 -332 -344 -332h-295q-154 0 -253 80t-99 252zM260 332q0 -125 73 -186.5t195 -61.5h295q260 0 260 248v835q0 248 -260 248h-295q-127 0 -197.5 -66.5t-70.5 -181.5v-835z" />
<glyph unicode="1" horiz-adv-x="729" d="M100 1270v55l344 174h84v-1499h-84v1405z" />
<glyph unicode="2" horiz-adv-x="1222" d="M100 1434v59q211 27 582 27q213 0 314.5 -119t101.5 -311q0 -106 -77 -242.5t-178.5 -250.5t-233.5 -232.5t-206.5 -178t-134.5 -102.5h830v-84h-983v78q897 678 897 1014q0 342 -332 342h-580z" />
<glyph unicode="3" horiz-adv-x="1222" d="M76 1419v51q158 41 610 33q172 -2 261 -96t89 -242v-141q0 -127 -66.5 -193.5t-140.5 -82.5q76 -27 141.5 -98.5t65.5 -198.5v-121q0 -344 -364 -344q-463 0 -584 34l2 52h576q127 0 204.5 55t77.5 203v121q0 129 -85 188t-191 63l-457 15v59l457 15q123 4 201.5 62 t78.5 171v141q0 127 -77.5 190.5t-196.5 63.5h-602z" />
<glyph unicode="4" horiz-adv-x="1196" d="M51 477l637 1022h98l-616 -995h709v463l39 153h45v-616h184v-60l-184 -26v-414h-84v414h-789z" />
<glyph unicode="5" horiz-adv-x="1296" d="M193 23v57h622q111 0 180.5 70.5t69.5 193.5v205q0 260 -252 260h-313q-86 0 -157 -64.5t-71 -156.5h-77l45 911h866v-84h-789l-30 -633q23 35 82 72t137 39h309q334 0 334 -340v-213q0 -98 -33 -171t-87 -108.5t-107.5 -52t-106.5 -16.5q-417 0 -622 31z" />
<glyph unicode="6" horiz-adv-x="1292" d="M164 786q0 373 100.5 549t251.5 176q379 0 578 -24v-60h-564q-82 0 -141 -63.5t-88 -166.5t-41 -195.5t-12 -186.5q260 31 565 31q190 0 260 -79t70 -222v-242q0 -305 -330 -305h-264q-88 0 -154.5 36t-121 122t-82 243.5t-27.5 386.5zM248 760q0 -678 301 -678h264 q248 0 248 223v240q0 127 -64.5 171t-183.5 44h-565z" />
<glyph unicode="7" horiz-adv-x="1101" d="M76 1415v84h911l39 -65l-506 -1434h-98l502 1415h-848z" />
<glyph unicode="8" horiz-adv-x="1325" d="M188 315v203q0 104 61.5 161.5t133.5 65.5q-195 41 -195 277v133q0 195 94.5 274.5t266.5 79.5h258q168 0 250 -84t82 -270v-133q0 -49 -17.5 -98.5t-59.5 -92.5t-99 -51q176 -45 176 -264v-201q0 -94 -33 -160.5t-87 -98t-105.5 -44t-108.5 -12.5h-256q-100 0 -172 25.5 t-108 59.5t-55 84t-22.5 79.5t-3.5 66.5zM272 309q0 -225 277 -225h256q98 0 174 55.5t76 169.5v215q0 201 -244 201h-285q-90 0 -172 -49t-82 -152v-215zM272 1012q0 -205 254 -205h285q125 0 184.5 62.5t59.5 142.5v139q0 147 -60.5 210.5t-187.5 63.5h-258 q-147 0 -212 -62.5t-65 -211.5v-139z" />
<glyph unicode="9" horiz-adv-x="1292" d="M152 958v242q0 305 329 305h264q88 0 155 -35.5t121 -121.5t81.5 -244t27.5 -387q0 -373 -100 -549t-252 -176q-422 0 -577 24v60h565q82 0 141.5 63.5t87 166t40 194.5t12.5 186q-244 -29 -566 -29q-190 0 -259.5 79t-69.5 222zM233 958q0 -127 64.5 -171t183.5 -44h566 q0 678 -302 678h-264q-248 0 -248 -223v-240z" />
<glyph unicode=":" horiz-adv-x="428" d="M152 33v123q0 33 34 32h52q33 0 32 -32v-123q0 -33 -32 -33h-52q-14 0 -24 9.5t-10 23.5zM152 928v125q0 35 34 34h52q33 0 32 -34v-125q0 -31 -32 -31h-52q-34 0 -34 31z" />
<glyph unicode=";" horiz-adv-x="421" d="M152 35v121q0 37 34 37h50q33 0 32 -37v-213q0 -98 -87 -99l-23 2v31q45 0 45 41v82h-17q-14 0 -24 10.5t-10 24.5zM154 930v125q0 33 32 32h52q35 0 34 -32v-125q0 -31 -34 -31h-52q-32 0 -32 31z" />
<glyph unicode="&#x3c;" horiz-adv-x="978" d="M127 684v84l725 373v-92l-616 -322l616 -344v-94z" />
<glyph unicode="=" horiz-adv-x="974" d="M51 434v84h875v-84h-875zM51 930v84h875v-84h-875z" />
<glyph unicode="&#x3e;" horiz-adv-x="978" d="M127 289v94l616 344l-616 322v92l725 -373v-84z" />
<glyph unicode="?" horiz-adv-x="1095" d="M51 1430v57q276 33 537 26q225 2 316 -96t91 -282v-207q0 -203 -131 -276.5t-399 -43.5v-209h-88v279h244q291 4 290 250v207q0 162 -77.5 228.5t-255.5 66.5h-527zM362 33v123q0 33 33 32h54q31 0 30 -32v-123q0 -33 -30 -33h-54q-33 0 -33 33z" />
<glyph unicode="@" horiz-adv-x="1757" d="M164 0v713q0 35 3 64.5t21.5 83.5t51 91t102.5 67t166 30h420q129 0 221 -67t92 -220v-762h-59l-21 131l-27 -15q-28 -15 -72 -37t-97.5 -44.5t-117 -37.5t-114.5 -15q-113 -2 -188.5 66.5t-73.5 172.5v109q0 125 69.5 198.5t194.5 73.5h424q2 154 0 156q0 207 -237 207 h-414q-260 0 -260 -252v-713q0 -152 76.5 -215.5t183.5 -63.5h674q145 0 211.5 69t66.5 210v1049q0 139 -72.5 220t-205.5 81h-807v51q174 37 590 33h217q168 -4 265 -101.5t97 -283.5v-1049q0 -365 -362 -365h-674q-160 0 -252 94.5t-92 270.5zM553 279.5q0 -44.5 2 -46.5 q0 -74 53.5 -120.5t139.5 -46.5q150 -2 411 122v359l-414 -25q-190 -14 -190 -196q-2 -2 -2 -46.5z" />
<glyph unicode="A" horiz-adv-x="1355" d="M115 0l557 1499h96l535 -1499h-97l-168 483h-653l-172 -483h-98zM416 567h592l-289 822z" />
<glyph unicode="B" horiz-adv-x="1222" d="M201 0v1499h538q209 0 299 -104.5t90 -274.5q0 -133 -66.5 -225t-170.5 -111q86 -20 166 -114.5t80 -251.5q0 -84 -18.5 -154.5t-61.5 -132t-124 -96.5t-194 -35h-538zM287 86h452q313 0 314 336q1 135 -89 228q-88 91 -219 91h-6h-452v-655zM287 827h452q137 0 220 77 t85 216v15q0 280 -305 280h-452v-588z" />
<glyph unicode="C" horiz-adv-x="1171" d="M139 754q0 152 12.5 262t44 208.5t87 160t143.5 96.5t211 35q195 0 459 -50v-61l-17 1q-16 1 -42.5 4t-62.5 5t-78 5t-85 6.5t-89 4.5t-85 1q-152 0 -238 -56.5t-131 -206t-45 -419.5q0 -678 416 -678q96 0 210 5t180 10l67 5v-59q-242 -45 -459 -45q-498 0 -498 766z " />
<glyph unicode="D" horiz-adv-x="1363" d="M201 0v1499h532q133 0 232.5 -50t155 -126t89 -182.5t44 -198.5t10.5 -199q0 -135 -30 -261t-90.5 -236.5t-167 -178t-243.5 -67.5h-532zM285 86h448q150 0 255.5 103.5t148.5 248t43 307.5q0 670 -447 670h-448v-1329z" />
<glyph unicode="E" horiz-adv-x="1179" d="M201 252v981q-1 141 73 205q69 61 172 61h13l622 -24v-60h-622q-174 0 -174 -182v-447l714 -14v-59l-714 -15v-446q0 -57 16 -95t47 -53.5t59.5 -20.5t71.5 -5h602v-60l-602 -24h-22q-44 0 -79 6q-44 8 -87 32.5t-66.5 81t-23.5 138.5z" />
<glyph unicode="F" horiz-adv-x="1179" d="M201 0v1233q-1 141 73 205q69 61 172 61h13l622 -24v-60h-622q-174 0 -174 -182v-447l714 -14v-59l-714 -15v-698h-84z" />
<glyph unicode="G" horiz-adv-x="1263" d="M139 758q0 139 8.5 238.5t36 204t75.5 169t133 105.5t204 41q80 0 242.5 -17.5t271.5 -38.5v-67q-2 0 -38 4t-92 10t-120.5 11t-136.5 9.5t-127 4.5q-94 0 -160.5 -30t-107.5 -83t-64.5 -140t-32 -186.5t-8.5 -238.5q0 -377 81 -527.5t302 -152.5q70 0 183.5 24.5 t191.5 48.5l78 25v539h-406v53q119 33 351 33q66 0 139 -6v-791h-58l-22 106q-70 -39 -202 -77.5t-255 -38.5h-11q-116 0 -200 39q-88 41 -137 104.5t-76.5 171t-35 208t-7.5 245.5z" />
<glyph unicode="H" horiz-adv-x="1341" d="M201 0v1499h84v-733h839v733h84v-1499h-84v684h-839v-684h-84z" />
<glyph unicode="I" horiz-adv-x="417" d="M201 0v1499h84v-1499h-84z" />
<glyph unicode="J" horiz-adv-x="720" d="M88 43l8 57q61 -18 108 -26q35 -6 76 -6q16 0 32 1q61 3 99 27.5t65.5 86t27.5 155.5v1161h84v-1161q0 -225 -107 -301q-69 -49 -183 -49h-10q-120 2 -200 55z" />
<glyph unicode="K" horiz-adv-x="1212" d="M201 0v1499h84v-704h264l485 704h103l-512 -747l512 -752h-105l-485 709h-260v-709h-86z" />
<glyph unicode="L" horiz-adv-x="1142" d="M201 258v1241h84v-1241q0 -57 16 -95t47 -53.5t59.5 -20.5t71.5 -5h588v-84h-588q-59 0 -102 8t-86 33t-66.5 80t-23.5 137z" />
<glyph unicode="M" horiz-adv-x="1634" d="M139 0l142 1499h120l424 -1358l414 1358h121l153 -1499h-83l-142 1366l-418 -1366h-90l-426 1366l-131 -1366h-84z" />
<glyph unicode="N" horiz-adv-x="1372" d="M201 0v1499h88l866 -1341v1341h84v-1499h-84l-870 1341v-1341h-84z" />
<glyph unicode="O" horiz-adv-x="1382" d="M164 739q0 207 26.5 349.5t68.5 225.5t119 127t152.5 56t194.5 12q98 0 164.5 -8t136.5 -34.5t112 -79t77.5 -136.5t51 -211t15.5 -301q0 -197 -23.5 -332t-64.5 -216.5t-114.5 -126t-153.5 -58.5t-201 -14q-102 0 -170 8t-138.5 33.5t-111.5 76t-75.5 132.5t-50 205.5 t-15.5 291.5zM248 739q0 -219 23.5 -349t85 -200.5t143.5 -92t225 -21.5q137 0 219 23.5t143.5 93t86 200.5t24.5 346q0 193 -21.5 321t-54 200.5t-98.5 109.5t-128 46t-171 9q-66 0 -105.5 -2t-92 -11t-83 -28.5t-66.5 -52.5t-56.5 -84t-39 -120.5t-26.5 -167t-8 -220.5z " />
<glyph unicode="P" horiz-adv-x="1191" d="M152 0v1499h581q70 0 126 -15.5t113.5 -55t89.5 -128t32 -219.5q0 -121 -25 -207t-57.5 -130t-88 -68.5t-94 -28.5t-96.5 -4q-63 0 -276 12.5t-221 16.5v-672h-84zM236 729h497q129 -1 203 71q72 70 72 270v11q0 106 -25 177t-68 103t-85 42t-97 10h-497v-684z" />
<glyph unicode="Q" horiz-adv-x="1382" d="M164 739q0 150 13 264.5t36 195.5t61.5 138.5t79.5 90t104.5 51t122 24.5t142.5 6q121 0 196.5 -12t151.5 -56t118 -127t67.5 -225.5t25.5 -349.5q0 -197 -24.5 -332t-65.5 -216.5t-114.5 -126t-153.5 -58.5t-201 -14q-102 0 -170 8t-137.5 33.5t-111.5 76t-76.5 132.5 t-49 204.5t-14.5 292.5zM248 739q0 -219 22.5 -349t84 -200.5t143.5 -92t225 -21.5q111 0 181.5 14t132 54t94 115t50 191.5t17.5 288.5q0 160 -12 275.5t-43 190.5t-65 120t-95 66.5t-115.5 27.5t-144.5 6q-76 0 -120 -3t-101.5 -17t-90 -41t-68.5 -76t-53.5 -121.5 t-29.5 -180.5t-12 -247zM690 -68h55q39 -68 103 -98q58 -26 113 -26h13q62 4 128 26v-88q-57 -20 -122 -21h-6q-62 0 -118 19q-59 20 -105.5 69t-60.5 119z" />
<glyph unicode="R" horiz-adv-x="1187" d="M152 0v1499h589q57 0 104.5 -9t95.5 -37t81 -74t54.5 -122.5t21.5 -181.5q0 -111 -21.5 -192.5t-51.5 -124.5t-75 -68.5t-78.5 -33t-76.5 -9.5l323 -647h-88l-328 645q-453 12 -466 23v-668h-84zM236 733h505q61 0 102.5 10.5t83.5 43t63.5 104.5t21.5 184 q0 203 -74 270.5t-197 67.5h-505v-680z" />
<glyph unicode="S" horiz-adv-x="1198" d="M164 1012v135q0 207 103.5 285.5t295.5 78.5q197 0 473 -43v-59l-473 18q-14 1 -28 1q-135 0 -207 -55q-80 -60 -80 -226v-135q0 -143 65.5 -188.5t204.5 -45.5h252q186 0 257 -86t71 -233v-140q0 -104 -33 -173.5t-94.5 -103.5t-125 -46t-149.5 -12q-80 0 -252 12 t-239 24v64q176 -16 491 -16q63 0 113.5 9t99.5 33.5t77 78t28 130.5v140q0 119 -56.5 176t-187.5 57h-248q-115 0 -190.5 25.5t-110.5 75t-46 98.5t-11 121z" />
<glyph unicode="T" horiz-adv-x="1218" d="M94 1415v84h1055v-84h-492v-1415h-84v1415h-479z" />
<glyph unicode="U" horiz-adv-x="1392" d="M201 655v844h84v-844q0 -211 28.5 -334.5t102 -175t132 -61.5t186.5 -10h3q72 0 116 5t101.5 21.5t92 55.5t67.5 100t47.5 162.5t14.5 236.5v844h86v-844q0 -109 -10.5 -197.5t-27 -153t-45 -115t-54 -84t-68.5 -56t-73 -34t-81 -17.5t-81.5 -7t-84.5 -1h-12q-61 0 -91 1 t-84 6t-83 16.5t-72 35t-66.5 56t-52 83t-42 116t-23.5 154t-10 197.5z" />
<glyph unicode="V" horiz-adv-x="1355" d="M115 1499h90l491 -1384l514 1384h93l-560 -1499h-96z" />
<glyph unicode="W" horiz-adv-x="1980" d="M115 1499h90l491 -1376l457 1376h94l-186 -569l311 -811l467 1380h88l-504 -1499h-96l-311 797l-273 -797h-96z" />
<glyph unicode="X" horiz-adv-x="1177" d="M115 1499h98l403 -678l410 678h98l-452 -749l442 -750h-98l-400 670l-397 -670h-98l440 750z" />
<glyph unicode="Y" horiz-adv-x="1273" d="M115 1499h92l440 -864l479 864h95l-533 -967v-532h-84v532z" />
<glyph unicode="Z" horiz-adv-x="1132" d="M88 0v84l860 1331h-860v84h969v-84l-860 -1331h860v-84h-969z" />
<glyph unicode="[" horiz-adv-x="663" d="M215 -78v1450q0 57 9 108.5t36 112t86.5 96t147.5 35.5h122v-84h-122q-90 0 -142.5 -67.5t-52.5 -200.5v-1450q0 -121 48 -194.5t147 -73.5h122v-84h-122q-88 0 -147.5 36t-86.5 96t-36 111.5t-9 108.5z" />
<glyph unicode="\" horiz-adv-x="755" d="M51 1577h80l576 -1724h-80z" />
<glyph unicode="]" horiz-adv-x="663" d="M51 -346h123q98 0 146.5 73.5t48.5 194.5v1450q0 133 -52.5 200.5t-142.5 67.5h-123v84h123q88 0 147.5 -35.5t86 -96t36 -111.5t9.5 -109v-1450q0 -57 -9.5 -108.5t-36 -111.5t-86 -96t-147.5 -36h-123v84z" />
<glyph unicode="^" horiz-adv-x="821" d="M127 1087l260 267h76l235 -267h-73l-201 205l-223 -205h-74z" />
<glyph unicode="_" horiz-adv-x="1357" d="M51 -2v84h1258v-84h-1258z" />
<glyph unicode="`" horiz-adv-x="438" d="M51 1360h101l237 -273h-65z" />
<glyph unicode="a" horiz-adv-x="1062" d="M100 258v125q0 127 73 199.5t200 72.5q240 -1 360.5 -1t120.5 1q1 68 1 102.5t-1 35.5q0 233 -231 235h-16q-167 0 -472 -39v55q236 61 490 64h7q132 0 218 -77q88 -79 88 -238v-793h-57l-27 131l-32 -14q-32 -14 -84 -36t-111.5 -43.5t-129 -35.5t-124.5 -14 q-117 0 -195 71.5t-78 198.5zM184 268q0 -102 55.5 -148t133.5 -48q74 0 193.5 28.5t203.5 58.5l84 29v408l-481 -25q-188 -8 -189 -192v-111z" />
<glyph unicode="b" horiz-adv-x="1130" d="M152 0v1608h79v-586q92 37 210 59.5t194 22.5q371 0 371 -565q0 -102 -17.5 -192.5t-56.5 -175.5t-115 -134t-182 -49q-96 0 -225 47t-177 86l-28 -121h-53zM233 178q225 -106 402 -106q127 0 207 116.5t80 350.5q0 272 -77 376.5t-210 104.5q-174 0 -402 -59v-783z" />
<glyph unicode="c" horiz-adv-x="1024" d="M127 545q0 172 24.5 285.5t76 170t110.5 77t145 20.5q178 0 426 -54v-57q-244 27 -426 27q-70 0 -113.5 -15.5t-82.5 -63.5t-57.5 -146.5t-18.5 -251.5q0 -186 36 -291t91 -138.5t145 -33.5q84 0 194.5 9t179.5 18l69 10v-62q-199 -57 -443 -59q-84 0 -142 20.5 t-110.5 76.5t-78 171t-25.5 287z" />
<glyph unicode="d" horiz-adv-x="1130" d="M127 539q0 565 371 565q76 0 193.5 -22.5t209.5 -59.5v586h80v-1608h-55l-27 121q-47 -39 -176 -86t-225 -47q-106 0 -182 49t-115 134t-56.5 175.5t-17.5 192.5zM211 539q0 -240 79 -353.5t208 -113.5q176 0 401 106v783q-227 59 -401 59q-135 0 -211 -103.5t-76 -377.5 z" />
<glyph unicode="e" horiz-adv-x="1075" d="M127 549q0 180 22.5 288.5t79 166t130 75t202.5 17.5q72 0 118 -4.5t99 -16.5t85 -37.5t59.5 -66.5t40 -106.5t12.5 -153.5q0 -117 -68.5 -166t-210.5 -49h-485q0 -174 35 -269.5t89 -124t148 -28.5q233 0 471 35v-62q-200 -57 -439 -57h-32q-205 2 -280.5 124t-75.5 435 zM211 578h485q94 0 144.5 26.5t50.5 106.5q0 102 -16.5 162.5t-61.5 91t-99.5 39t-152.5 8.5q-111 0 -169 -12.5t-104 -57.5t-61.5 -129.5t-15.5 -234.5z" />
<glyph unicode="f" horiz-adv-x="796" d="M51 1004v59l185 24v203q0 45 2 77t13 82t32.5 82t62.5 55.5t100 23.5q199 0 302 -31v-53l-279 2q-94 0 -122 -57.5t-28 -180.5v-203h345v-83h-345v-1004h-83v1004h-185z" />
<glyph unicode="g" horiz-adv-x="1159" d="M115 -51l43 188q-37 35 -37 105q0 53 40 98t115 51q-157 74 -157 311q0 202 87 296t265 94h639v-58l-207 -26q104 -98 105 -303q0 -43 -7.5 -86.5t-29 -95.5t-57 -92t-99 -66.5t-145.5 -26.5h-320q-27 0 -55.5 -5t-61 -29.5t-32.5 -63.5q0 -49 44 -75t93 -26h426 q137 0 212 -74.5t75 -199.5v-117q0 -301 -308 -301h-307q-147 0 -234 82t-87 233v187zM199 102v-340q0 -57 17 -101t43 -68.5t60.5 -40t62.5 -19.5t54 -4h307q225 0 226 219v113q0 196 -211 196h-2h-414q-96 0 -143 45zM201 705q0 -135 65.5 -209t190.5 -74h207 q137 0 199.5 83t62.5 200q-2 150 -56.5 226.5t-148.5 76.5h-264q-143 0 -199.5 -80t-56.5 -223z" />
<glyph unicode="h" horiz-adv-x="1124" d="M152 0v1606h84v-645q231 145 428 145q156 0 245.5 -102.5t89.5 -245.5v-758h-84v758q0 121 -67.5 192.5t-183.5 71.5q-121 0 -210 -27.5t-218 -95.5v-899h-84z" />
<glyph unicode="i" horiz-adv-x="366" d="M127 1270v123q0 32 31 32h2h49q31 0 31 -32v-123q0 -31 -31 -31h-49q-33 0 -33 31zM139 0v1087h84v-1087h-84z" />
<glyph unicode="j" horiz-adv-x="415" d="M152 1270v123q0 32 30 32h2h49q33 0 33 -32v-123q0 -31 -33 -31h-49q-32 0 -32 31zM168 -553v1640h84v-1095v-62q0 -295 -35 -483h-49z" />
<glyph unicode="k" horiz-adv-x="1019" d="M152 0v1602h84v-934h108l504 419h123l-545 -464l543 -623h-111l-514 582h-108v-582h-84z" />
<glyph unicode="l" horiz-adv-x="610" d="M152 387v1217h84v-1217q0 -96 15 -159.5t44 -91t50.5 -37t53.5 -15.5q147 -29 162 -29v-55h-151q-129 0 -193.5 92t-64.5 295z" />
<glyph unicode="m" horiz-adv-x="1882" d="M152 0v1087h55l29 -129q231 145 423 146q100 0 178 -45t117 -121q88 68 218.5 117t250.5 49q152 0 244 -100.5t92 -247.5v-756h-84v756q0 113 -68.5 188.5t-183.5 75.5q-221 0 -450 -133q22 -49 22 -124v-7v-756h-84v756q0 113 -68.5 188.5t-183.5 75.5 q-121 0 -209 -27.5t-214 -93.5v-899h-84z" />
<glyph unicode="n" horiz-adv-x="1124" d="M152 0v1087h55l29 -126q231 145 428 145q156 0 245.5 -102.5t89.5 -245.5v-758h-84v758q0 117 -68.5 190.5t-182.5 73.5q-121 0 -210 -27.5t-218 -95.5v-899h-84z" />
<glyph unicode="o" horiz-adv-x="1169" d="M127 528q0 328 100.5 449t356.5 121q262 0 361 -130t99 -440q0 -301 -99 -419.5t-361 -118.5q-266 0 -361.5 119.5t-95.5 418.5zM211 528q0 -150 22.5 -242.5t74.5 -138t112.5 -59.5t163 -14t165 15t114.5 62.5t75 139.5t23 237q0 158 -23 256.5t-75 147.5t-114.5 65.5 t-165 16.5t-162 -13.5t-112.5 -61.5t-75.5 -147.5t-22.5 -263.5z" />
<glyph unicode="p" horiz-adv-x="1130" d="M152 -551v1638h53l28 -120q47 39 176.5 86t225.5 47q106 0 182 -49.5t115 -134.5t56.5 -175t17.5 -192q0 -565 -371 -565q-76 0 -192.5 22.5t-209.5 59.5v-617h-81zM233 127q227 -59 402 -59q133 0 210 104t77 377q0 233 -80 350t-207 117q-176 0 -402 -107v-782z" />
<glyph unicode="q" horiz-adv-x="1138" d="M127 549q0 264 94 407.5t283 143.5q262 0 487 -33v-1620h-84v612q-92 -37 -208.5 -58t-194.5 -21q-115 0 -190.5 41.5t-115.5 122.5t-55.5 177.5t-15.5 227.5zM211 549q0 -115 11 -196t42 -150.5t90.5 -104.5t149.5 -35q168 0 403 60v893h-403q-293 0 -293 -467z" />
<glyph unicode="r" horiz-adv-x="868" d="M152 0v1087h53l31 -137q90 51 134 74t130 49.5t168 26.5q113 0 151 -17v-82q-72 14 -151 15q-37 0 -70 -3t-67.5 -11.5t-56 -14.5t-59.5 -22.5t-53.5 -23.5t-63.5 -29.5t-62 -30.5v-881h-84z" />
<glyph unicode="s" horiz-adv-x="1032" d="M100 739v95q0 131 65.5 197.5t217.5 66.5q260 0 494 -23v-59h-494q-113 0 -156 -43t-43 -139v-95q0 -55 11.5 -88t42 -47t58.5 -17t87 -3h283q123 0 194.5 -65.5t71.5 -180.5v-100q0 -80 -21.5 -132.5t-63.5 -76t-83 -31.5t-98 -8q-72 0 -265.5 10t-255.5 16v58h521 q31 0 45 1t44.5 9t47 23.5t31 49t14.5 81.5v100q0 72 -46 117t-136 45h-283q-158 0 -220.5 44.5t-62.5 194.5z" />
<glyph unicode="t" horiz-adv-x="735" d="M51 1006v61l182 23l23 303h61v-303h345v-84h-345v-619q0 -96 15.5 -159.5t44.5 -91t50.5 -37t53.5 -15.5q147 -29 162 -29v-55h-151q-129 0 -194 92t-65 295v619h-182z" />
<glyph unicode="u" horiz-adv-x="1124" d="M127 332v758h84v-758q0 -117 68.5 -190.5t183.5 -73.5q123 0 212 27.5t216 92.5v902h84v-1088h-55l-29 127q-231 -145 -428 -145q-156 0 -246 102.5t-90 245.5z" />
<glyph unicode="v" horiz-adv-x="1075" d="M51 1087h88l396 -966l401 966h90l-448 -1087h-86z" />
<glyph unicode="w" horiz-adv-x="1607" d="M51 1087h90l373 -970l354 970h88l-137 -387l264 -583l387 970h89l-429 -1087h-88l-264 592l-217 -592h-90z" />
<glyph unicode="x" horiz-adv-x="1011" d="M59 0l394 545l-394 542h109l338 -471l340 471h108l-395 -544l389 -543h-102l-340 469l-338 -469h-109z" />
<glyph unicode="y" horiz-adv-x="1099" d="M53 1087h90l291 -849q29 -80 74 -117q43 -35 74 -35h3l31 2l338 999h90l-477 -1431l-114 -209h-50l185 553q-174 8 -242 225z" />
<glyph unicode="z" horiz-adv-x="958" d="M76 1004v83h811v-83l-672 -918h672v-84h-781v84l672 918h-702z" />
<glyph unicode="{" horiz-adv-x="632" d="M51 641v84q184 16 185 135v483q0 168 79.5 274.5t268.5 106.5v-84q-131 0 -198 -67.5t-67 -229.5v-483q0 -72 -48 -118t-119 -58q70 -10 117.5 -58t47.5 -112v-592q0 -145 67 -207.5t200 -60.5v-84q-109 0 -182.5 30.5t-108.5 87t-47.5 111t-12.5 123.5v584 q0 66 -57 102.5t-125 32.5z" />
<glyph unicode="|" horiz-adv-x="512" d="M217 -147v1724h84v-1724h-84z" />
<glyph unicode="}" horiz-adv-x="632" d="M51 -346q133 -2 199.5 60.5t66.5 207.5v592q0 63 48.5 111.5t117.5 58.5q-72 12 -120 58t-48 118v483q0 162 -66.5 229.5t-197.5 67.5v84q188 0 268 -106.5t80 -274.5v-483q0 -119 185 -135v-84q-68 4 -125.5 -33t-57.5 -102v-584q0 -70 -12 -124t-47 -110.5t-108.5 -87 t-182.5 -30.5v84z" />
<glyph unicode="~" horiz-adv-x="944" d="M127 1171q4 4 26.5 23.5t27.5 24t24.5 19.5t28 20.5t27 15.5t30.5 13t28.5 6t32.5 3q43 0 126 -61t118 -61q18 0 38.5 5t36 12t37 19.5t31 20.5t31 23.5t25.5 19.5l24 -39q-4 -4 -19.5 -18.5t-19.5 -19.5t-18 -18.5t-21.5 -17.5t-21.5 -15t-22.5 -15.5t-23 -11.5 t-25.5 -10t-24.5 -5t-27.5 -2q-47 0 -129 61.5t-117 61.5q-27 0 -55.5 -9.5t-45 -18.5t-52 -32.5t-50.5 -31.5z" />
<glyph unicode="&#xa2;" horiz-adv-x="999" d="M100 545q0 178 27 293.5t83 171t120.5 74t163.5 16.5v176h65v-182q176 -14 326 -50v-57q-244 29 -426 29q-70 0 -114 -16.5t-84 -63.5t-58.5 -146.5t-18.5 -252.5q0 -141 18.5 -234.5t57.5 -142.5t85 -68.5t114 -19.5q84 0 193.5 9t177.5 18l69 10v-62q-166 -49 -340 -55 v-170h-65v166q-78 0 -132.5 9t-107.5 43t-84 93.5t-50.5 163t-19.5 248.5z" />
<glyph unicode="&#xa3;" horiz-adv-x="1226" d="M127 0v59l147 25v618h-147v52l147 22v258q0 92 12.5 164t33 120t55.5 83t69.5 53.5t88 28.5t97.5 13t111 3q51 0 141.5 -6t154.5 -11l65 -5v-60h-357q-90 0 -143 -6t-106.5 -26.5t-79 -62.5t-42 -111.5t-16.5 -176.5v-258l580 -22v-52h-580v-618h740v-84h-971z" />
<glyph unicode="&#xa5;" horiz-adv-x="1206" d="M51 1499h94l439 -758l473 758h100l-530 -842h405v-59h-407v-164h407v-59h-407v-375h-84v375h-383v59h383v164h-383v59h381z" />
<glyph unicode="&#xa8;" horiz-adv-x="888" d="M127 1192q0 25 16.5 41t41 16t42 -16t17.5 -41t-17.5 -42t-42 -17t-41 17t-16.5 42zM647 1192q0 25 17.5 41t42 16t42 -16t17.5 -41t-17.5 -42t-42 -17t-42 17t-17.5 42z" />
<glyph unicode="&#xa9;" horiz-adv-x="1730" d="M139 754q0 139 21.5 260t72 235.5t150.5 182t240 67.5h534q436 0 436 -745q0 -207 -43 -372t-144 -273.5t-249 -108.5h-534q-109 0 -195 52t-138 133t-88 185.5t-49.5 199t-13.5 184.5zM203 754q0 -121 24.5 -240t74.5 -221.5t133 -166t188 -63.5h534q162 0 267.5 181.5 t105.5 509.5q0 137 -17.5 251.5t-57.5 216t-115.5 158t-182.5 56.5h-534q-86 0 -156 -33t-131.5 -106.5t-96 -211.5t-36.5 -331zM500 748q0 233 79.5 339.5t215.5 106.5q147 0 364 -39v-49q-172 25 -364 24q-231 0 -232 -389q0 -182 53.5 -279t178.5 -97q221 0 376 32v-49 q-168 -47 -376 -47q-137 0 -216 97.5t-79 349.5z" />
<glyph unicode="&#xab;" horiz-adv-x="1122" d="M127 725l420 418l59 -60l-362 -358l374 -367l-61 -61zM506 725l422 418l57 -60l-362 -358l372 -367l-59 -61z" />
<glyph unicode="&#xad;" d="M51 553v82h602v-82h-602z" />
<glyph unicode="&#xae;" horiz-adv-x="1730" d="M139 754q0 139 21.5 260t72 235.5t150.5 182t240 67.5h534q436 0 436 -745q0 -207 -43 -372t-144 -273.5t-249 -108.5h-534q-109 0 -195 52t-138 133t-88 185.5t-49.5 199t-13.5 184.5zM203 754q0 -121 24.5 -240t74.5 -221.5t133 -166t188 -63.5h534q162 0 267.5 181.5 t105.5 509.5q0 137 -17.5 251.5t-57.5 216t-115.5 158t-182.5 56.5h-534q-86 0 -156 -33t-131.5 -106.5t-96 -211.5t-36.5 -331zM567 313v875h363q119 0 189.5 -55.5t70.5 -204.5q0 -43 -7 -78t-16.5 -57.5t-29 -41t-30.5 -27.5t-37 -16.5t-34 -8.5t-34.5 -4t-28.5 -3 l215 -379h-74l-213 379l-270 15v-394h-64zM631 750h311q102 0 143 34.5t41 141.5q0 111 -48 154.5t-136 43.5h-311v-374z" />
<glyph unicode="&#xb4;" horiz-adv-x="438" d="M51 1087l238 273h100l-272 -273h-66z" />
<glyph unicode="&#xb8;" horiz-adv-x="534" d="M127 -319l80 18q74 14 104.5 58t28.5 167h70q0 -160 -42 -219t-165 -59h-76v35z" />
<glyph unicode="&#xbb;" horiz-adv-x="1122" d="M127 358l373 367l-361 358l58 60l421 -418l-432 -428zM506 358l373 367l-363 358l62 60l417 -418l-430 -428z" />
<glyph unicode="&#xd3;" horiz-adv-x="1382" d="M164 739q0 207 26.5 349.5t68.5 225.5t119 127t152.5 56t194.5 12q98 0 164.5 -8t136.5 -34.5t112 -79t77.5 -136.5t51 -211t15.5 -301q0 -197 -23.5 -332t-64.5 -216.5t-114.5 -126t-153.5 -58.5t-201 -14q-102 0 -170 8t-138.5 33.5t-111.5 76t-75.5 132.5t-50 205.5 t-15.5 291.5zM248 739q0 -219 23.5 -349t85 -200.5t143.5 -92t225 -21.5q137 0 219 23.5t143.5 93t86 200.5t24.5 346q0 193 -21.5 321t-54 200.5t-98.5 109.5t-128 46t-171 9q-66 0 -105.5 -2t-92 -11t-83 -28.5t-66.5 -52.5t-56.5 -84t-39 -120.5t-26.5 -167t-8 -220.5z M692 1632l238 273h100l-272 -273h-66z" />
<glyph unicode="&#xf3;" horiz-adv-x="1169" d="M127 528q0 328 100.5 449t356.5 121q262 0 361 -130t99 -440q0 -301 -99 -419.5t-361 -118.5q-266 0 -361.5 119.5t-95.5 418.5zM211 528q0 -150 22.5 -242.5t74.5 -138t112.5 -59.5t163 -14t165 15t114.5 62.5t75 139.5t23 237q0 158 -23 256.5t-75 147.5t-114.5 65.5 t-165 16.5t-162 -13.5t-112.5 -61.5t-75.5 -147.5t-22.5 -263.5zM551 1221l237 272h101l-273 -272h-65z" />
<glyph unicode="&#x104;" horiz-adv-x="1355" d="M115 0l557 1499h96l535 -1499h-25q-100 -53 -132 -127t17 -128t160 -54v-62q-86 -12 -154.5 26t-93 97.5t13 130t146.5 117.5h-29l-168 483h-653l-172 -483h-98zM416 567h592l-289 822z" />
<glyph unicode="&#x105;" horiz-adv-x="1118" d="M127 258v125q0 127 72.5 199.5t199.5 72.5q481 -2 482 0q2 135 0 138q0 233 -232 235q-168 2 -487 -39v55q236 61 489 64q137 2 225.5 -77t88.5 -238v-793h-7q-100 -53 -131.5 -127t17.5 -128t160 -54v-62q-86 -12 -155 26t-93.5 97.5t13.5 130t146 117.5h-8l-26 131 l-32 -14q-32 -14 -84 -36t-111.5 -43.5t-129 -35.5t-125.5 -14q-117 0 -194.5 71.5t-77.5 198.5zM211 268q0 -102 55.5 -148t132.5 -48q74 0 194 28.5t204 58.5l84 29v408l-482 -25q-188 -8 -188 -192v-111z" />
<glyph unicode="&#x106;" horiz-adv-x="1171" d="M139 754q0 152 12.5 262t44 208.5t87 160t143.5 96.5t211 35q195 0 459 -50v-61l-17 1q-16 1 -42.5 4t-62.5 5t-78 5t-85 6.5t-89 4.5t-85 1q-152 0 -238 -56.5t-131 -206t-45 -419.5q0 -678 416 -678q96 0 210 5t180 10l67 5v-59q-242 -45 -459 -45q-498 0 -498 766z M635 1638l237 273h101l-273 -273h-65z" />
<glyph unicode="&#x107;" horiz-adv-x="1024" d="M127 545q0 172 24.5 285.5t76 170t110.5 77t145 20.5q178 0 426 -54v-57q-244 27 -426 27q-70 0 -113.5 -15.5t-82.5 -63.5t-57.5 -146.5t-18.5 -251.5q0 -186 36 -291t91 -138.5t145 -33.5q84 0 194.5 9t179.5 18l69 10v-62q-199 -57 -443 -59q-84 0 -142 20.5 t-110.5 76.5t-78 171t-25.5 287zM522 1223l238 272h100l-272 -272h-66z" />
<glyph unicode="&#x118;" horiz-adv-x="1179" d="M201 252v981q0 141 73.5 205.5t184.5 60.5l622 -24v-60h-622q-174 0 -174 -182v-447l714 -14v-59l-714 -15v-446q0 -57 16 -95t47 -53.5t59.5 -20.5t71.5 -5h602v-58v-2h-4q-98 -53 -128.5 -126.5t18.5 -127t159 -53.5v-61q-84 -12 -152.5 24.5t-94 95t10.5 129 t138 117.5l-549 -22q-57 -2 -101 6t-87 32.5t-66.5 81t-23.5 138.5z" />
<glyph unicode="&#x119;" horiz-adv-x="1075" d="M127 549q0 180 22.5 288.5t79 166t130 75t202.5 17.5q72 0 118 -4.5t99 -16.5t85 -37.5t59.5 -66.5t40 -106.5t12.5 -153.5q0 -117 -68.5 -166t-210.5 -49h-485q0 -174 35 -269.5t89 -124t148 -28.5q233 0 471 35v-62q-100 -53 -131.5 -127t17.5 -128t159 -54v-62 q-82 -10 -148.5 23t-94 87t-2 121.5t111.5 117.5q-170 -39 -383 -35q-205 2 -280.5 124t-75.5 435zM211 578h485q94 0 144.5 26.5t50.5 106.5q0 102 -16.5 162.5t-61.5 91t-99.5 39t-152.5 8.5q-111 0 -169 -12.5t-104 -57.5t-61.5 -129.5t-15.5 -234.5z" />
<glyph unicode="&#x141;" horiz-adv-x="1140" d="M33 709v71l168 74v645h84v-610l260 112v-67l-260 -113v-563q0 -57 16 -95t47 -53.5t59.5 -20.5t71.5 -5h588v-84h-588q-59 0 -102 8t-86 33t-66.5 80t-23.5 137v524z" />
<glyph unicode="&#x142;" horiz-adv-x="630" d="M23 797v69l149 74v664h84v-625l279 137l-3 -69l-276 -138v-522q0 -168 40 -228.5t124 -74.5q147 -29 162 -29v-55h-158q-125 0 -188.5 89t-63.5 298v483z" />
<glyph unicode="&#x143;" horiz-adv-x="1372" d="M201 0v1499h88l866 -1341v1341h84v-1499h-84l-870 1341v-1341h-84zM705 1632l237 273h100l-272 -273h-65z" />
<glyph unicode="&#x144;" horiz-adv-x="1124" d="M152 0v1087h55l29 -126q231 145 428 145q156 0 245.5 -102.5t89.5 -245.5v-758h-84v758q0 117 -68.5 190.5t-182.5 73.5q-121 0 -210 -27.5t-218 -95.5v-899h-84zM541 1229l237 272h101l-273 -272h-65z" />
<glyph unicode="&#x15a;" horiz-adv-x="1198" d="M164 1012v135q0 207 103.5 285.5t295.5 78.5q197 0 473 -43v-59l-473 18q-156 6 -235.5 -54t-79.5 -226v-135q0 -143 65.5 -188.5t204.5 -45.5h252q186 0 257 -86t71 -233v-140q0 -104 -33 -173.5t-94.5 -103.5t-125 -46t-149.5 -12q-80 0 -252 12t-239 24v64 q176 -16 491 -16q63 0 113.5 9t99.5 33.5t77 78t28 130.5v140q0 119 -56.5 176t-187.5 57h-248q-115 0 -190.5 25.5t-110.5 75t-46 98.5t-11 121zM600 1634l238 273h100l-272 -273h-66z" />
<glyph unicode="&#x15b;" horiz-adv-x="1032" d="M100 739v95q0 131 65.5 197.5t217.5 66.5q260 0 494 -23v-59h-494q-113 0 -156 -43t-43 -139v-95q0 -55 11.5 -88t42 -47t58.5 -17t87 -3h283q123 0 194.5 -65.5t71.5 -180.5v-100q0 -80 -21.5 -132.5t-63.5 -76t-83 -31.5t-98 -8q-72 0 -265.5 10t-255.5 16v58h521 q31 0 45 1t44.5 9t47 23.5t31 49t14.5 81.5v100q0 72 -46 117t-136 45h-283q-158 0 -220.5 44.5t-62.5 194.5zM492 1231l237 272h100l-272 -272h-65z" />
<glyph unicode="&#x179;" horiz-adv-x="1132" d="M88 0v84l860 1331h-860v84h969v-84l-860 -1331h860v-84h-969zM567 1632l238 273h100l-272 -273h-66z" />
<glyph unicode="&#x17a;" horiz-adv-x="958" d="M76 1004v83h811v-83l-672 -918h672v-84h-781v84l672 918h-702zM449 1214l237 273h100l-272 -273h-65z" />
<glyph unicode="&#x17b;" horiz-adv-x="1132" d="M88 0v84l860 1331h-860v84h969v-84l-860 -1331h860v-84h-969zM516 1665v121q0 33 33 33h49q33 0 33 -33v-121q0 -33 -33 -33h-49q-33 0 -33 33z" />
<glyph unicode="&#x17c;" horiz-adv-x="958" d="M76 1004v83h811v-83l-672 -918h672v-84h-781v84l672 918h-702zM424 1253v121q0 33 33 33h49q33 0 33 -33v-121q0 -33 -33 -32h-49q-33 -1 -33 32z" />
<glyph unicode="&#x2c6;" horiz-adv-x="821" d="M127 1087l260 267h76l235 -267h-73l-201 205l-223 -205h-74z" />
<glyph unicode="&#x2da;" horiz-adv-x="667" d="M127 1294q0 88 61.5 149.5t147.5 61.5t145.5 -61.5t59.5 -149.5t-59.5 -148.5t-145.5 -60.5t-147.5 60.5t-61.5 148.5zM178 1294q0 -63 46 -109t112 -46q63 0 108 45t45 110.5t-45 111.5t-108 46q-66 0 -112 -46t-46 -112z" />
<glyph unicode="&#x2dc;" horiz-adv-x="944" d="M127 1171q49 41 75.5 62.5t68.5 41t81 19.5q47 -2 132 -62.5t114 -60.5q16 0 35.5 5.5t34 11.5t36 18.5t30.5 19.5t33 23.5t28 18.5l24 -39q-49 -45 -71.5 -63.5t-67.5 -41t-84 -22.5q-51 2 -132 62.5t-114 60.5q-29 0 -57.5 -9.5t-45 -18.5t-50 -31.5t-50.5 -32.5z" />
<glyph unicode="&#x2000;" horiz-adv-x="955" />
<glyph unicode="&#x2001;" horiz-adv-x="1911" />
<glyph unicode="&#x2002;" horiz-adv-x="955" />
<glyph unicode="&#x2003;" horiz-adv-x="1911" />
<glyph unicode="&#x2004;" horiz-adv-x="637" />
<glyph unicode="&#x2005;" horiz-adv-x="477" />
<glyph unicode="&#x2006;" horiz-adv-x="318" />
<glyph unicode="&#x2007;" horiz-adv-x="318" />
<glyph unicode="&#x2008;" horiz-adv-x="238" />
<glyph unicode="&#x2009;" horiz-adv-x="382" />
<glyph unicode="&#x200a;" horiz-adv-x="106" />
<glyph unicode="&#x2010;" d="M51 553v82h602v-82h-602z" />
<glyph unicode="&#x2011;" d="M51 553v82h602v-82h-602z" />
<glyph unicode="&#x2012;" d="M51 553v82h602v-82h-602z" />
<glyph unicode="&#x2013;" horiz-adv-x="1069" d="M51 545v86h969v-86h-969z" />
<glyph unicode="&#x2014;" horiz-adv-x="1525" d="M51 549v86h1426v-86h-1426z" />
<glyph unicode="&#x2018;" horiz-adv-x="415" d="M143 1184v209q0 110 94 113q29 -2 29 -3v-33q-49 2 -49 -51v-67h19q39 0 38 -41v-127q0 -43 -38 -43h-56q-37 0 -37 43z" />
<glyph unicode="&#x2019;" horiz-adv-x="415" d="M143 1335v129q0 41 41 41h54q39 0 38 -41l-2 -211q0 -110 -93 -113q-29 2 -29 3v35q49 -2 49 49v69h-19q-39 0 -39 39z" />
<glyph unicode="&#x201a;" horiz-adv-x="415" d="M143 39v127q0 43 39 43h56q37 0 36 -43v-211q0 -110 -93 -113l-29 2v35q49 -2 49 49v72h-19q-39 0 -39 39z" />
<glyph unicode="&#x201c;" horiz-adv-x="634" d="M131 1184v209q0 110 94 113q29 -2 29 -3v-33q-49 2 -49 -51v-67h16q16 0 28.5 -11.5t12.5 -29.5v-127q0 -43 -41 -43h-53q-37 0 -37 43zM373 1184v209q0 111 96 113q29 -2 29 -3v-33q-49 2 -49 -51v-67h18q39 0 39 -41v-127q0 -43 -39 -43h-53q-41 0 -41 43z" />
<glyph unicode="&#x201d;" horiz-adv-x="632" d="M131 1335v129q0 41 39 41h53q39 0 39 -41v-211q0 -110 -94 -113q-29 2 -29 3v35q47 -2 47 49v69h-16q-39 0 -39 39zM373 1335v129q0 41 41 41h55q37 0 37 -41v-211q0 -111 -96 -113q-29 2 -29 3v35q51 -2 51 49v69h-18q-41 0 -41 39z" />
<glyph unicode="&#x201e;" horiz-adv-x="632" d="M131 41v127q0 43 39 43h53q39 0 39 -43v-209q0 -110 -94 -113l-29 2v33q47 -2 47 51v70h-16q-39 0 -39 39zM373 41v127q0 43 41 43h55q37 0 37 -43v-209q0 -111 -96 -113l-29 2v33q51 -2 51 51v70h-18q-41 0 -41 39z" />
<glyph unicode="&#x2026;" horiz-adv-x="1658" d="M205 33v123q0 33 35 32h51q33 0 33 -32v-123q0 -33 -33 -33h-51q-14 0 -24.5 9.5t-10.5 23.5zM762 33v123q0 33 35 32h51q33 0 33 -32v-123q0 -33 -33 -33h-51q-14 0 -24.5 9.5t-10.5 23.5zM1319 33v123q0 33 35 32h51q33 0 33 -32v-123q0 -33 -33 -33h-51 q-14 0 -24.5 9.5t-10.5 23.5z" />
<glyph unicode="&#x202f;" horiz-adv-x="382" />
<glyph unicode="&#x2039;" horiz-adv-x="727" d="M127 725l422 416l57 -58l-364 -358l376 -367l-61 -59z" />
<glyph unicode="&#x203a;" horiz-adv-x="727" d="M127 358l373 367l-365 358l62 58l421 -416l-434 -426z" />
<glyph unicode="&#x205f;" horiz-adv-x="477" />
<glyph unicode="&#x20ac;" horiz-adv-x="1228" d="M51 545v51l180 10v260l-180 11v47l180 12v17q0 51 1 83.5t10.5 97t26 109.5t51 100.5t85 90t129 58.5t177.5 24q207 0 460 -48v-61q-33 2 -86 7t-176 11.5t-198 6.5q-104 0 -178 -28t-116 -70t-65.5 -110.5t-30 -133t-6.5 -154.5l547 -10v-49l-547 -11v-260l547 -10v-51 q-35 0 -92 -1t-178 -3t-200 -3t-77 -3q-4 -209 103.5 -335t292.5 -128q96 -2 212.5 5t186.5 15l70 8v-59q-215 -53 -469 -53q-55 0 -111.5 11t-125 48t-120 94.5t-87.5 159.5t-36 234z" />
<glyph unicode="&#x2122;" horiz-adv-x="1431" d="M51 1436v63h531v-63h-234v-652h-63v652h-234zM662 784l55 715h57l262 -606l236 606h61l64 -715h-62l-51 570l-221 -570h-51l-246 572l-43 -572h-61z" />
<glyph unicode="&#xe000;" horiz-adv-x="1085" d="M0 1085h1085v-1085h-1085v1085z" />
</font>
</defs>
</svg>
